<?xml version="1.0" encoding="utf-8"?>
<!-- Generator: Adobe Illustrator 19.0.0, SVG Export Plug-In . SVG Version: 6.00 Build 0)  -->
<svg version="1.1" id="Layer_1" xmlns="http://www.w3.org/2000/svg" xmlns:xlink="http://www.w3.org/1999/xlink" x="0px" y="0px"
	 viewBox="0 0 767.96 779.96" style="enable-background:new 0 0 767.96 779.96;" xml:space="preserve">
<g id="XMLID_358_">
	<path id="XMLID_26_" style="fill:none;" d="M731.39,627.39c0,35.09-37.16,58.58-64.66,72.41
		c-51.03,25.65-109.05,37.71-165.29,45.05c-71.55,9.33-144.55,10.08-216.32,2.76c-59.07-6.02-119.47-17.07-174.2-40.87
		c-30.03-13.06-71.29-34.41-78.57-70.01c-6.9-33.75,24.45-59.36,50.19-74.43c46.31-27.11,101.09-40.09,153.55-48.65
		c70.72-11.54,143.16-13.92,214.59-8.8c67.45,4.84,137.06,15.72,199.61,42.53C682.3,561.1,731.39,586.31,731.39,627.39z"/>
</g>
<g id="XMLID_355_">
	<path id="XMLID_24_" style="fill:none;" d="M731.39,627.39c0,35.09-37.16,58.58-64.66,72.41
		c-51.03,25.65-109.05,37.71-165.29,45.05c-71.55,9.33-144.55,10.08-216.32,2.76c-59.07-6.02-119.47-17.07-174.2-40.87
		c-30.03-13.06-71.29-34.41-78.57-70.01c-6.9-33.75,24.45-59.36,50.19-74.43c46.31-27.11,101.09-40.09,153.55-48.65
		c70.72-11.54,143.16-13.92,214.59-8.8c67.45,4.84,137.06,15.72,199.61,42.53C682.3,561.1,731.39,586.31,731.39,627.39z"/>
</g>
<g id="XMLID_348_">
	<g id="XMLID_217_">
		<path id="XMLID_343_" style="fill:#7F4A46;" d="M146.52,662.08c-2.89-1.1-5.76-2.21-8.63-3.37c-0.94-0.38-6.03-2.51-1.71-0.68
			c4.46,1.89-1.21-0.54-1.68-0.75c-5.65-2.49-11.22-5.15-16.72-7.95c-13.35-6.81-31.73-3.94-39.25,10.29
			c-6.92,13.09-3.98,31.97,10.29,39.25c13.75,7.01,28.02,13.05,42.44,18.53c6.57,2.5,16.26,0.53,22.1-2.89
			c5.95-3.48,11.62-10.3,13.18-17.14C170.28,681.01,161.57,667.8,146.52,662.08L146.52,662.08z"/>
	</g>
</g>
<g id="XMLID_341_">
	<g id="XMLID_49_">
		<path id="XMLID_8_" style="fill:#7F4A46;" d="M169.05,676.32c-1.42-0.4-2.85-0.81-4.27-1.22c-3.81-1.2-7.63-1.37-11.44-0.51
			c-3.82,0.17-7.37,1.31-10.66,3.4c-3.34,1.8-6.03,4.27-8.05,7.39c-2.54,2.77-4.25,6.02-5.13,9.75c-0.34,2.54-0.68,5.08-1.02,7.63
			c0.02,5.18,1.32,10,3.92,14.48c1.5,1.94,2.99,3.87,4.49,5.81c3.58,3.56,7.8,6.01,12.66,7.38c1.42,0.41,2.84,0.82,4.27,1.22
			c3.81,1.2,7.63,1.37,11.44,0.51c3.82-0.17,7.37-1.31,10.66-3.4c3.34-1.8,6.03-4.27,8.05-7.39c2.54-2.77,4.25-6.02,5.13-9.75
			c0.34-2.54,0.68-5.08,1.02-7.63c-0.02-5.18-1.32-10-3.92-14.48c-1.5-1.94-2.99-3.87-4.49-5.81
			C178.13,680.14,173.91,677.69,169.05,676.32L169.05,676.32z"/>
	</g>
</g>
<g id="XMLID_338_">
	<path id="XMLID_25_" style="fill:#7F4A46;" d="M631.39,702.39c0,18.49-24.73,29.19-38.75,34.86
		c-30.54,12.35-64.01,17.85-96.59,21.36c-75.8,8.17-160.62,7.39-233.42-17.98c-15.72-5.48-41.72-14.68-46.95-32.94
		c-5.04-17.58,15.43-29.66,28.46-35.99c28.49-13.84,61.08-19.74,92.22-23.86c41.55-5.5,83.76-6.67,125.59-4.4
		c40.31,2.19,81.72,7.08,120.1,20.18C598.29,669.15,631.39,680.49,631.39,702.39z"/>
</g>
<g id="XMLID_331_">
	<path id="XMLID_333_" style="fill:#FFE1A0;" d="M736.56,598.13c1.49-16.44-11.01-32.04-20.82-43.62
		c-12.83-15.13-29.37-23.62-46.17-32.83c-34.68-19.03-71.69-27.72-110.19-35.77c-20.46-4.28-40.4-9.09-61.29-11.49
		c-16.41-1.88-32.06-2.74-48.39-4.29c-18.26-1.73-35.95-2.34-54.18-1.58c-18.63,0.78-44.62-0.93-59.35,0.46
		c-11.55,1.09-23.86,3.32-35.44,2.94c-11.68-0.38-21.96,1.42-33.18,2.19c-10.4,0.71-20.2,5.09-30.54,5.81
		c-8.91,0.62-20.17,0.83-28.71,3.32c-10.52,3.07-21.13,6.7-31.93,9.17c-11.43,2.61-23.59,2.72-34.49,7.69
		c-9.52,4.34-16.57,7.96-27.02,11.06c-7.33,2.17-14.68,4.78-21.27,8.72c-2.31,1.38-10.65,7.49-9.89,7.64
		c-0.75,0.04-1.29,0.39-1.63,1.05c-0.95-3.36-13.71,8.2-16.01,9.85c-8.39,6.07-17.81,12.81-24.67,20.95
		c-14.34,17.03-20.33,36.92-10.62,57.03c3.18,6.59,5.6,11.13,9.86,17c3.32,4.59,5.57,9.72,9.98,13.49
		c3.19,2.73,7.17,4.11,10.26,6.75c15.12,12.88,35.46,24.58,54.32,32.08c8.33,3.31,16.58,3.98,24.67,7.58
		c11.41,5.08,24.84,8.42,36.91,11.37c9.61,2.35,17.71,3.61,27.15,4.86c12.49,1.65,24.2,7.91,36.92,8.94
		c4.62,0.37,9.85-0.82,14.35-0.22c4.22,0.57,8.76,2.83,12.98,3.73c13.41,2.86,26.51,1.38,39.95,2.15
		c25.68,1.48,51.7,1.52,77.41,2.78c12.97,0.63,28.6,2.07,41.56,0.28c12.41-1.72,24.7-0.56,37.14-2.93
		c23.11-4.41,47.15-2.19,69.71-9.48c13.06-4.22,36.57-7.56,52.96-10.97c23.85-4.96,45.61-14.37,67.93-23.5
		c9.64-3.94,20.22-6.93,28.68-13.14c6.22-4.57,11.91-10.04,18.23-14.47C720.64,639.46,735.97,623.04,736.56,598.13
		C736.59,597.81,736.55,598.85,736.56,598.13z M59,651.25c-0.04,0.07,0.23,0.45,0.58,0.88C59.18,651.85,58.83,651.51,59,651.25z
		 M655.16,680.2C655.21,680.18,655.2,680.18,655.16,680.2L655.16,680.2z M671.59,673.48C671.01,673.74,671.14,673.67,671.59,673.48
		L671.59,673.48z"/>
	<path id="XMLID_332_" style="fill:#FFE1A0;" d="M82.8,527.75C82.07,528.05,82.62,527.9,82.8,527.75
		C82.67,527.8,82.75,527.79,82.8,527.75z"/>
</g>
<path id="XMLID_326_" style="fill:#EBB460;" d="M715.71,583.02c1.39-14.46-10.39-28.89-19.6-38.57
	c-12.25-12.88-26.09-19.34-41.43-27.25c-5.46-2.81-9.74-5.58-15.6-7.94c-10.51-4.23-20.5-8.96-31.37-12.56
	c-19.26-6.38-39.15-8.93-58.79-12.92c-35.94-7.31-71.8-12.36-108.13-14.33c-32.73-1.77-72.51-3.23-102.01-0.62
	c-20.81,1.85-41.68,2.06-62.03,4.77c-20.19,2.68-43.07,3.73-62.39,9.54c-19.87,5.97-43.49,5.65-62.18,15.09
	c-8.46,4.27-16.72,6.23-25.88,9.1c-5.44,1.7-24.38,13.42-25.19,13.27c-0.69,0.03-1.2,0.34-1.53,0.93
	c-0.79-2.63-36.87,25.07-39.57,28.46c-11.99,15.02-17.75,31.16-9.09,48.64c15.13,30.55,46.67,48.79,78.02,61.2
	c9.66,3.82,19.72,5.74,29.54,9.14c11.32,3.92,23.13,6.33,34.71,9.36c7.77,2.03,14.73,2.57,22.38,3.68
	c13.56,1.96,25.83,7.79,39.8,7.64c8.61-0.09,15.38,2.44,23.92,3.69c11.44,1.67,22.69,0.36,34.05,1.06
	c24.68,1.53,49.32,2.31,74.05,2.77c25.63,0.48,51.37-0.23,76.75-3.5c20.26-2.61,41.11-1.48,60.83-7.46
	c13.05-3.96,35.85-6.58,52.09-10.11c21.37-4.65,41.16-12.44,61.42-20.25c7.66-2.95,16.03-5.18,23.31-9.11
	c7.58-4.09,13.9-10.82,21.15-15.44C700.38,620.17,715.15,605.43,715.71,583.02C715.74,582.74,715.7,583.66,715.71,583.02z
	 M77.85,630c-0.04,0.06,0.22,0.39,0.55,0.78C78.02,630.53,77.7,630.23,77.85,630z M639.08,655.6
	C639.12,655.58,639.12,655.59,639.08,655.6L639.08,655.6z M654.55,649.65C654,649.89,654.12,649.83,654.55,649.65L654.55,649.65z"/>
<path id="XMLID_325_" style="fill:#FDD598;" d="M100.26,520.79C99.57,521.05,100.09,520.92,100.26,520.79
	C100.14,520.83,100.21,520.82,100.26,520.79z"/>
<g id="XMLID_311_" style="opacity:0.8;">
	<path id="XMLID_323_" style="fill:#BE8978;" d="M143.23,492.31C142.54,492.51,143.06,492.42,143.23,492.31
		C143.11,492.35,143.18,492.34,143.23,492.31z"/>
	<g id="XMLID_312_">
		<path id="XMLID_322_" style="fill:none;" d="M100.26,520.79c-0.05,0.04-0.09,0.07-0.13,0.11
			C101.81,520.52,100.99,520.5,100.26,520.79z"/>
		<path id="XMLID_321_" style="fill:none;" d="M78.4,630.78c-0.33-0.39-0.59-0.72-0.55-0.78C77.7,630.23,78.02,630.53,78.4,630.78z"
			/>
		<path id="XMLID_320_" style="fill:none;" d="M99.57,521.52C99.46,521.17,99.33,520.75,99.57,521.52
			C99.54,521.43,99.5,521.28,99.57,521.52z"/>
		<path id="XMLID_319_" style="fill:#EBB460;" d="M115.07,591.02c-0.29-0.37-0.52-0.7-0.48-0.75
			C114.42,590.47,114.72,590.76,115.07,591.02z"/>
		<path id="XMLID_314_" style="fill:#BE8978;" d="M638.19,649.97c13.91-6.4,25.49-10.54,38.06-19.51
			c11.58-8.27,30.22-17.35,34.07-32.21c-12.9,6.17-23.96,15.58-37.58,20.02c-14.49,4.72-29.14,9.89-43.94,13.29
			c-19.65,4.52-39.81,7.59-59.88,10.3c-11.87,1.6-29.64,1.54-38.05,3.32c-17.15,3.62-36.14,2.71-53.55,2.14
			c-17.34-0.57-34.88-1.07-52.03-1.06c-22.03,0.01-44.89-4.65-66.85-6.94c-19.99-2.09-39.86-7.37-59.68-8.76
			c-18.79-1.33-35.48-9.64-53.63-11.46c-17.24-1.73-32.88-11.09-49.48-14.39c-17.61-3.5-38.84-13.19-54.47-22.08
			c-16.79-9.55-34.48-14.44-50.03-27.63c8.17,23.25,29.46,35.52,49.23,47.81c15.99,9.94,32.67,15.42,49.75,22.4
			c15.49,6.32,32.64,12.17,49.02,14.8c6.95,1.12,13.89,3.44,20.75,5.6c10.15,3.2,19.31,3.39,29.55,5.15
			c7.52,1.3,14.76,4.68,22.47,5.92c8.51,1.37,17.06,1.15,25.53,2.18c34.56,4.19,70.6,10.09,105.49,10.15
			c16.06,0.03,32.13-0.64,48.25-0.51c17.23,0.14,35.62,0.78,52.53-2.79C571.14,659.92,609.64,663.13,638.19,649.97
			C638.4,649.87,636.36,650.81,638.19,649.97z M654.55,643.65C654,643.89,654.12,643.83,654.55,643.65L654.55,643.65z
			 M639.11,649.59c0,0-0.01,0-0.03,0.01C639.1,649.59,639.11,649.59,639.11,649.59z M114.59,584.27c-0.04,0.05,0.19,0.37,0.48,0.75
			C114.72,584.76,114.42,584.47,114.59,584.27z"/>
		<path id="XMLID_313_" style="fill:#FDD598;" d="M100.26,520.79C99.57,521.05,100.09,520.92,100.26,520.79
			C100.14,520.83,100.21,520.82,100.26,520.79z"/>
	</g>
</g>
<g id="XMLID_304_">
	<path id="XMLID_306_" style="fill:#FFE1A0;" d="M744.56,556.32c3.2-16.2-7.6-33.01-16.15-45.56
		c-11.17-16.4-26.69-26.52-42.48-37.48c-15.44-10.71-31.98-19.92-49.38-28.04c-18.62-8.69-38.89-13.17-58.03-19.78
		c-36.18-12.5-73.59-21.28-110.97-27.39c-16.43-2.69-31.98-5.29-48.62-6.28c-18.61-1.11-44.27-5.59-59.07-5.75
		c-11.6-0.12-24.06,0.81-35.55-0.78c-11.27-1.56-21-0.72-31.88-1.02c-10.65-0.29-20.9,2.45-31.55,2.46
		c-9.3,0.01-20.51-1.52-29.67,0.14c-10.56,1.91-21.15,4.26-31.95,5.54c-12.36,1.46-25.71,0.28-37.65,4.79
		c-9.15,3.46-16.31,5.83-26.25,7.66c-7.51,1.39-15.11,3.23-22.07,6.44c-2.44,1.13-11.38,6.34-10.63,6.57
		c-0.75-0.03-1.33,0.26-1.73,0.87c-0.59-3.44-14.49,6.72-16.95,8.13c-9.27,5.32-20.78,11.38-28.21,19.49
		c-7.23,7.88-14.87,18.87-17.64,29.29c-2.88,10.84-0.03,17.51,3.29,27.51c5.34,16.1,15.18,27.42,26.4,39.48
		c12.83,13.78,32.73,27.03,49.62,35.88c7.94,4.16,16.05,5.75,23.75,10.12c10.92,6.21,23.72,11.01,35.52,15.17
		c5.18,1.83,10.17,4.98,15.46,6.37c3.18,0.83,6.65-0.08,9.73,0.67c11.97,2.92,22.89,10.34,35.07,13.01
		c8.76,1.92,15.9,1.86,24.24,5.07c13.16,5.07,26.99,6.19,40.83,7.85c10.52,1.27,20.99,3.97,31.63,5.5
		c14.54,2.09,29.41,2.3,43.86,4.43c15.46,2.28,32.06,5.86,47.76,5.55c11.8-0.23,23.31,2.06,35.26,1.06
		c23.45-1.97,47.12,2.75,70.32-2.14c3.06-0.65,19.14-2.37,26.06-2.68c10.13-0.45,20.08-1.66,30.16-2.91
		c23.41-2.89,45.17-9.52,67.61-16.06c9.26-2.7,19.84-4.35,28.39-9.07c7.48-4.13,14.32-9.67,21.82-13.79
		C724.82,595.73,741.44,580.52,744.56,556.32C744.62,556,744.47,557.04,744.56,556.32z M65.15,538.32
		c-0.05,0.06,0.19,0.47,0.49,0.94C65.27,538.94,64.96,538.56,65.15,538.32z M655.02,629.43
		C655.07,629.42,655.07,629.42,655.02,629.43L655.02,629.43z M672.07,624.46C671.46,624.67,671.6,624.61,672.07,624.46
		L672.07,624.46z"/>
	<path id="XMLID_305_" style="fill:#FFE1A0;" d="M101.73,417.99C100.98,418.21,101.54,418.12,101.73,417.99
		C101.6,418.02,101.68,418.02,101.73,417.99z"/>
</g>
<path id="XMLID_299_" style="fill:#EBB460;" d="M725.4,539.12c2.9-14.23-7.32-29.82-15.46-40.41
	c-10.84-14.09-23.93-21.96-38.36-31.43c-5.14-3.37-9.1-6.56-14.69-9.52c-10.01-5.3-19.45-11.05-29.88-15.77
	c-18.49-8.36-38.01-12.97-57.12-19c-34.98-11.03-70.11-19.8-106.04-25.55c-32.36-5.18-71.77-10.8-101.38-11.28
	c-20.89-0.34-41.67-2.31-62.19-1.74c-20.36,0.56-43.22-0.79-63.04,2.97c-20.38,3.86-43.84,1.07-63.42,8.51
	c-8.86,3.36-17.28,4.45-26.69,6.34c-5.59,1.12-25.65,10.8-26.44,10.56c-0.69-0.04-1.23,0.21-1.62,0.76
	c-0.54-2.85-37.75,20.35-40.57,22.84c-15.54,13.77-22.78,30.57-15.29,49.98c6.06,15.7,14.73,26.52,26.44,38.13
	c4.97,4.93,11.04,7.55,16.76,11.57c10.86,7.64,21.51,16.06,33.91,21.16c19.66,8.09,39.58,16.16,59.68,23.76
	c7.43,2.81,14.52,3.31,21.94,6.09c12.25,4.58,24,8.28,36.91,10.19c8.71,1.29,16.54,5.02,25.32,6.91
	c10.07,2.17,20.35,2.31,30.38,3.98c24.74,4.12,49.6,7.69,74.5,10.61c24.82,2.91,49.69,4.28,74.59,4.09
	c20.32-0.16,41.17,2.8,61.28-1.06c15.08-2.9,39.36-2.62,57.47-5.26c20.24-2.95,39.21-7.92,58.9-13.16
	c8.69-2.31,18.56-3.69,26.65-7.86c6.79-3.5,12.98-8.4,19.82-11.82C706.27,574.46,722.5,561.35,725.4,539.12
	C725.46,538.84,725.32,539.75,725.4,539.12z M86.13,519.16c-0.05,0.06,0.18,0.41,0.46,0.83C86.24,519.7,85.95,519.37,86.13,519.16z
	 M641.6,603.29C641.65,603.28,641.64,603.28,641.6,603.29L641.6,603.29z M657.61,598.99C657.04,599.17,657.17,599.12,657.61,598.99
	L657.61,598.99z"/>
<path id="XMLID_298_" style="fill:#FDD598;" d="M119.82,412.89C119.11,413.08,119.65,413,119.82,412.89
	C119.7,412.92,119.77,412.92,119.82,412.89z"/>
<g id="XMLID_267_" style="opacity:0.8;">
	<path id="XMLID_296_" style="fill:#BE8978;" d="M620.59,359.7C620.24,359.63,620.47,359.71,620.59,359.7
		C620.53,359.69,620.54,359.71,620.59,359.7z"/>
	<path id="XMLID_295_" style="fill:#BE8978;" d="M376.59,319.62c-0.71-1.01-1.26-1.04-1.65-0.09
		C375.51,319.89,376.06,319.92,376.59,319.62C375.9,318.99,376.42,319.68,376.59,319.62z"/>
	<path id="XMLID_294_" style="fill:#BE8978;" d="M380.48,536.92C380.86,536.99,380.61,536.91,380.48,536.92
		C380.54,536.93,380.51,536.92,380.48,536.92z"/>
	<path id="XMLID_293_" style="fill:#BE8978;" d="M583.11,345.68C582.55,345.6,582.8,345.72,583.11,345.68
		C583,345.66,583.02,345.69,583.11,345.68z"/>
	<g id="XMLID_268_">
		<path id="XMLID_292_" style="fill:none;" d="M86.59,519.99c-0.29-0.42-0.51-0.78-0.46-0.83C85.95,519.37,86.24,519.7,86.59,519.99
			z"/>
		<path id="XMLID_291_" style="fill:none;" d="M119.06,413.55C119,413.2,118.91,412.74,119.06,413.55
			C119.04,413.45,119.01,413.3,119.06,413.55z"/>
		<path id="XMLID_290_" style="fill:none;" d="M119.82,412.89c-0.05,0.03-0.1,0.06-0.14,0.1
			C121.4,412.79,120.59,412.68,119.82,412.89z"/>
		<path id="XMLID_289_" style="fill:none;" d="M657.61,598.99C657.17,599.12,657.04,599.17,657.61,598.99L657.61,598.99z"/>
		<path id="XMLID_288_" style="fill:#EBB460;" d="M73.44,470.11C73.6,470.22,73.75,470.3,73.44,470.11L73.44,470.11z"/>
		<path id="XMLID_287_" style="fill:#EBB460;" d="M208.29,521.39C208.17,521.32,208.19,521.34,208.29,521.39L208.29,521.39z"/>
		<path id="XMLID_286_" style="fill:#EBB460;" d="M254.18,528.6c-0.12-0.05-0.21-0.09-0.21-0.11
			C253.96,528.56,254.05,528.59,254.18,528.6z"/>
		<path id="XMLID_285_" style="fill:#EBB460;" d="M206.3,520.34c0,0.03-0.1,0.09-0.26,0.16C206.2,520.48,206.3,520.44,206.3,520.34z
			"/>
		<path id="XMLID_284_" style="fill:#EBB460;" d="M243.03,506.71c-0.14-0.06-0.23-0.11-0.23-0.13
			C242.79,506.67,242.89,506.7,243.03,506.71z"/>
		<path id="XMLID_272_" style="fill:#BE8978;" d="M64.59,463.83c5.46,2.79,11.76,8.29,16.44,12.46c4.09,3.65,5.76,5.73,10.75,8.16
			c1.09,0.53,5.71,1.83,5.78,2.14c0.91,3.95,9.22,3.81,11.92,5.1c4.68,2.24,7.62,6.29,12.69,8.28c5.54,2.18,13.01,2.68,19.31,4.5
			c5.56,1.6,10.8,5.95,15.96,7.19c8.91,2.14,17.48,2.99,26.51,6.12c3.76,1.31,8.91,3.53,12.92,3.86c2.42,0.2,6.44-1.33,8.66-0.96
			c6.42,1.07,11.93,4.68,18.68,5.63c-0.21,0.03-0.43,0-0.64-0.07c15.42,2.63,30.26,1.95,45.9,4.55c9.46,1.57,15.76,3.14,25.1,2.75
			c5.95-0.25,11.77,1.93,17.73,2.45c11.45,1.01,22.82,0.25,34.76,1.27c8.67,0.74,16.2,0.15,24.27-0.17
			c1.95-0.08,12.03-0.1,9.35-0.15c11.08,3.51,23.12-2.19,33.5-0.88c7.88,0.99,13.08-0.43,20.62-1.37c5.91-0.74,12.1,0.79,18.5-0.02
			c27.27-3.47,55.54-7.4,82.61-12.01c12.35-2.1,24.38-6.91,37.01-9.44c7.15-1.44,12.78-2.78,19.66-5.45
			c4.3-1.67,8.49-3.72,12.99-5.01c11.68-3.35,23.4-8.08,34.73-12.64c6.23-2.5,10.82-7.08,16.37-10.62
			c5.76-3.68,13.71-4.64,16.91-11.5c-6.81-2.61-5.74-7.75-14.23-5.78c-5.69,1.32-12.93,6.56-18.59,8.93
			c-8.87,3.73-18.15,6.74-26.84,10.65c-11.65,5.24-22.96,6.72-35.2,10.58c-15.33,4.83-28.56,7.52-44.63,9.33
			c-14.2,1.6-28.86,4.88-43.2,7.48c-4.92,0.89-9.91,0.39-14.61,1.1c-6.6,1-12.99,4.19-19.95,4.42c-4.34,0.14-8.81-1.74-12.83-1.64
			c-3.13,0.08-6.52,2.83-9.59,3.52c-6.33,1.43-11.31-0.96-17.45-0.98c-9.95-0.03-23.88,4.86-34.82,1.08
			c2.66,0.05-7.55,0.23-10.24,0.19c-8.65-0.12-17.1,1.44-26.59,0.39c-13.37-1.48-25.57-0.37-38.08-1.72
			c-6.39-0.69-12.51-3.32-18.98-3.12c-4.39,0.13-7.71,1.88-12.61,1.28c-4.81-0.59-9.45-3.03-14.05-3.72
			c-8.44-1.26-18.41-3.26-26.93-3.45c-7.99-0.18-16.05-1.04-24.65-2.63c0.23,0.09,0.47,0.12,0.7,0.09
			c-7.33-1.13-13.41-5.73-20.3-6.67c-1.83-0.25-5.12,1.26-7.26,1.22c-5.48-0.1-11.52-2.69-16.54-4.74
			c-10.48-4.28-21.67-5.56-31.47-9.36c-4.85-1.88-9.86-4.8-15.07-6.54c-3.95-1.32-8.45-1.3-12.51-2.49
			c-0.75-0.49-1.49-0.97-2.24-1.46c-1.52-2.31-3.66-2.79-6.4-1.43c-5.78-2.11-7.44-5.84-12.29-8.94
			c-3.47-2.22-13.71-2.46-14.68-7.05C70.12,450.3,53.8,458.31,64.59,463.83C64.98,464.03,63.76,463.41,64.59,463.83z M656.51,479.55
			c-0.33,0.2-0.66,0.37-0.72,0.26C655.8,479.81,656.09,479.71,656.51,479.55z M643.87,487.84
			C643.57,488.02,643.64,487.97,643.87,487.84L643.87,487.84z M468.16,531.16c0.01,0.09-0.1,0.11-0.27,0.11
			C468.04,531.21,468.16,531.16,468.16,531.16z M437.56,533.63C437.92,533.45,438.41,533.71,437.56,533.63L437.56,533.63z
			 M395.85,537.26C395.49,537.23,395.47,537.2,395.85,537.26L395.85,537.26z M381.52,516.64
			C381.84,516.75,381.19,516.68,381.52,516.64C381.56,516.65,381.48,516.64,381.52,516.64z M254.18,528.6
			c-0.13-0.01-0.22-0.04-0.21-0.11C253.97,528.51,254.06,528.55,254.18,528.6z M208.29,521.39
			C208.19,521.34,208.17,521.32,208.29,521.39L208.29,521.39z M206.3,520.34c0,0.1-0.11,0.14-0.26,0.16
			C206.2,520.43,206.3,520.38,206.3,520.34z M73.44,470.11C73.75,470.3,73.6,470.22,73.44,470.11L73.44,470.11z"/>
		<path id="XMLID_271_" style="fill:#EBB460;" d="M192.76,498.09C192.62,498.01,192.65,498.03,192.76,498.09L192.76,498.09z"/>
		<path id="XMLID_270_" style="fill:#EBB460;" d="M190.58,496.84c0,0.04-0.11,0.11-0.29,0.19
			C190.46,497.01,190.58,496.96,190.58,496.84z"/>
		<path id="XMLID_269_" style="fill:#FDD598;" d="M119.82,412.89C119.11,413.08,119.65,413,119.82,412.89
			C119.7,412.92,119.77,412.92,119.82,412.89z"/>
	</g>
</g>
<g id="XMLID_242_">
	<path id="XMLID_247_" style="fill:#FFE1A0;" d="M724.1,397.56c-0.47-4.16,2.4-7.77,2.45-11.83c0.04-3.48-1.29-10.12-1.78-13.5
		c-2-13.75-12.92-23.46-22.15-31.37c-8.73-7.47-13.69-14.16-25.03-19.03c-4.69-2.01-30.89-21.11-32.62-16.49
		c0.17-0.47-4.23-1.01-0.69-0.5c-4.89-3.27-37.35-22.26-40.41-16.1c0.52-1.05-2.33-0.33-1.94-0.49c3.22-1.35-7.9-2.81-8.71-2.92
		c-4.73-0.62-4.68-2.02-9.01-3.76c-4.47-1.8-7.17,0.16-11.58-0.15c-5.16-0.37-8.76-4.2-13.37-5.85c-7.21-2.58-14.77-1.44-22.01-3.68
		c-6.2-1.92-12-3.31-18.84-4.5c-9.98-1.72-20.93-2.6-31.04-4.01c-3.62-0.51-4.47,0.19-8.32-0.65c-3.18-0.69-5.72-2.28-9.18-2.4
		c-3.26-0.12-6.27,1.65-9.31,1.64c-2.47-0.01-6.23-2.11-9.4-2.13c-5.93-0.04-12.24,0.7-18.5,0.34c-9.42-0.53-17.77-4.69-27.23-3.73
		c-6.3,0.64-9.76-0.32-16.18-0.76c-2.06-0.14-12.62-0.55-11.55,1.96c-0.95-2.24-12.31-2.2-14.83-1.64
		c-2.59,0.58-3.65,2.37-6.21,2.61c-5.44,0.53-10.99-2.56-17.01-1.84c-6.4,0.77-13.76,2.63-20.27,2.59
		c-7.35-0.04-14.09-1.73-21.44-0.72c-4.47,0.61-7.31,2.1-12.12,2.51c-3.63,0.31-5.77,0.19-9.7-0.02c-4.06-0.22-7.82-0.22-11.82,0.37
		c-1.63,0.24-3.19,0.16-4.91,0.42c-1.49,0.41-2.83,1.1-4.01,2.07c-1.28,1.44-2.77,1.33-4.45-0.33
		c-19.01,1.77-34.22,7.88-52.68,10.18c-18.7,2.32-37.11,8.7-55.57,12.98c-6.94,1.61-13.77,3.95-20.8,6.6
		c-3.78,1.43-7.06,2.57-10.9,3.68c-0.37,0.27-0.73,0.53-1.1,0.8c-1.07,2.68-2.94,3.2-5.61,1.58c-2.74,1.12-4.72,3.07-7.2,4.19
		c-15.19,6.87-29.26,13.4-42.88,23.07c-7.65,5.44-15.95,12.83-22.33,19.85c-9.37,10.3-10.94,20.27-14.32,32.71
		c-1.92,7.05-1.63,11.3-0.06,18.51c2.06,9.47,5.81,18.92,11.88,25.48c5.29,5.71,11.63,10.48,17.89,15.57
		c4.73,3.85,8.33,9.41,13.26,12.85c1.56,1.09,10.76,4,10.92,4.76c0.97,4.59,11.21,4.84,14.68,7.05c4.69,3,6.59,6.82,12.29,8.94
		c2.74-1.36,4.88-0.89,6.4,1.43c0.75,0.49,1.49,0.97,2.24,1.46c4.06,1.19,8.56,1.17,12.51,2.49c5.16,1.72,10.25,4.68,15.07,6.54
		c9.77,3.79,20.99,5.08,31.47,9.36c4.22,1.73,9.52,4.12,14.15,4.61c2.4,0.25,7.55-1.48,9.65-1.09c7.05,1.33,12.78,5.51,20.3,6.67
		c-0.23,0.03-0.47,0-0.7-0.09c3.8,0.71,7.86-0.52,11.36,0.09c1.83,0.31,3.35,2.83,5.49,3.17c2.18,0.34,4.24-1.68,6.13-1.49
		c3.9,0.38,8.87,1.24,12.79,1.84c4.9,0.74,9.77,1.24,14.5,1.83c4.17,0.52,8.85,3.21,13.25,3.95c5.58,0.94,9.13-0.44,14.25-0.67
		c6.6-0.3,12.86,2.22,19.43,2.93c12.28,1.33,23.95-0.29,37.06,1.29c9.1,1.1,16.74-0.25,25.03-0.59c3.42-0.14,9.58,0.16,12.44,0.27
		c-0.46-0.02,4.04,0.24,0.38,0.17c10,3.46,24.07-0.29,32.94-1.1c5.66-0.51,10.37,2.05,15.95,1.63c3.75-0.28,6.83-2.64,10.39-3.22
		c4.02-0.65,7.12,0.74,11.37,0.92c11.79,0.52,24.35-3.83,35.79-5.31c14.79-1.91,29.48-6.14,43.96-7.74
		c27.38-3.04,55.98-8.84,81.45-19.8c17.76-7.65,36.63-14.71,54.62-22.74c6.3-2.82,10.35-7.45,15.89-11.29
		c6.04-4.18,12.72-6.06,17.63-11.83c4.21-4.95,8.06-10.05,12.63-14.85C720.94,414.33,725.18,407.15,724.1,397.56
		C724.09,397.53,724.21,398.57,724.1,397.56z M17.72,394.57c0.04,0.03,0.07,0.08,0.1,0.09C17.78,394.65,17.75,394.62,17.72,394.57z
		 M590.8,285.93C591.32,285.99,591.6,286.06,590.8,285.93L590.8,285.93z M590.24,285.9c-0.39,0.06-0.79,0.13-0.81,0.21
		C589.48,285.94,589.84,285.89,590.24,285.9z M526.62,269.61c-0.24,0.03-0.42,0.06-0.42,0.08
		C526.21,269.55,526.39,269.55,526.62,269.61z M354.32,258.96c-0.36,0.04-0.99,0.1-1,0.14
		C353.42,258.68,353.87,258.77,354.32,258.96z M172.21,280.36C172.01,280.37,171.94,280.36,172.21,280.36L172.21,280.36z
		 M97.17,303.99C97.66,303.58,97.66,303.89,97.17,303.99L97.17,303.99z M57.02,326.1c-0.06,0.1-0.1,0.18-0.07,0.21
		C56.9,326.25,56.93,326.18,57.02,326.1z M45.01,436.82C45.35,437.04,45.18,436.95,45.01,436.82L45.01,436.82z M190.29,497.03
		c0.18-0.08,0.29-0.15,0.29-0.19C190.58,496.96,190.46,497.01,190.29,497.03z M192.76,498.09
		C192.65,498.03,192.62,498.01,192.76,498.09L192.76,498.09z M242.8,506.59c0,0.02,0.1,0.07,0.23,0.13
		C242.89,506.7,242.79,506.67,242.8,506.59z M398.25,517.07C397.86,517.03,397.83,516.99,398.25,517.07L398.25,517.07z
		 M443.95,512.72C444.35,512.51,444.88,512.81,443.95,512.72L443.95,512.72z M477.17,509.9c0.17-0.08,0.3-0.13,0.3-0.13
		C477.49,509.88,477.36,509.91,477.17,509.9z M592.88,487.74c0.02-0.06,0.05-0.12,0.03-0.17
		C592.93,487.63,592.92,487.69,592.88,487.74z M669.99,458C669.65,458.22,669.73,458.16,669.99,458L669.99,458z M683.05,448.4
		c0,0.01,0.32-0.12,0.79-0.31C683.48,448.34,683.11,448.54,683.05,448.4z"/>
	<path id="XMLID_246_" style="fill:#FFE1A0;" d="M644.47,304.88C644.1,304.8,644.35,304.88,644.47,304.88
		C644.41,304.87,644.43,304.88,644.47,304.88z"/>
	<path id="XMLID_245_" style="fill:#FFE1A0;" d="M377.15,256.98c-0.79-1.2-1.39-1.24-1.81-0.11
		C375.96,257.31,376.57,257.34,377.15,256.98C376.4,256.22,376.96,257.06,377.15,256.98z"/>
	<path id="XMLID_244_" style="fill:#FFE1A0;" d="M381.41,516.66C381.82,516.73,381.55,516.64,381.41,516.66
		C381.48,516.67,381.45,516.65,381.41,516.66z"/>
	<path id="XMLID_243_" style="fill:#FFE1A0;" d="M603.42,288.12C602.82,288.03,603.06,288.17,603.42,288.12
		C603.3,288.1,603.32,288.13,603.42,288.12z"/>
</g>
<path id="XMLID_222_" style="fill:#EBB460;" d="M703.18,379.77c-0.46-3.73,1.86-7.69,1.94-11.34c0.08-3.85-1.04-10.59-2.19-14.24
	c-3.49-11.11-12.53-17.6-20.51-24.23c-8.01-6.65-12.91-12.21-23.01-16.45c-4.12-1.73-29.02-18.57-30.68-14.43
	c0.16-0.4-4.01-0.89-0.65-0.44c-4.79-2.98-35.05-19.66-38.02-14.09c0.5-0.94-2.27-0.26-1.83-0.43c2.14-0.83-4.37-2.67-6.12-2.95
	c-2.28-0.36-3.49,1.16-5.45,0.74c-2.46-0.53-3.03-2.93-5.1-3.63c-4.48-1.51-7.98,0.23-12.59-0.6c-4.6-0.82-7.98-4.11-12.48-5.14
	c-6.65-1.51-12.53-0.67-19.11-2.74c-5.09-1.6-10.07-2.97-15.64-3.79c-9.67-1.44-19.93-2.5-29.69-3.73c-2.84-0.36-5.26,0.7-7.88,0.32
	c-2.81-0.41-5.3-2.51-8.35-2.87c-3.05-0.36-6.04,1.06-8.89,0.91c-2.57-0.13-4.48-1.77-7.22-1.94c-6.34-0.4-13.3,1.06-19.91,0.97
	c-9.43-0.12-17.02-3.19-26.46-3.19c-2.01,0-27.06-1.27-26.08,0.86c-0.97-2.11-11.78-1.82-13.95-1.43c-1.51,0.27-2.83,1.94-4.36,2.1
	c-5.17,0.54-9.89-2.58-15.32-2.16c-6.33,0.49-13.02,2.39-19.5,2.81c-5.86,0.38-11.13-0.55-16.89-0.12
	c-15.92,1.2-33.67,2.72-49.23,4.09c-17.07,1.51-31.41,5.69-47.82,8.64c-16.86,3.03-34.04,6.04-50.53,10.46
	c-6.02,1.61-12.04,2.68-17.93,4.84c-3.25,1.19-6.41,2.87-9.61,4.02c-1.78,0.64-4,0.77-5.78,1.3c-1.14,0.65-2.06,1.54-2.76,2.68
	c-1.72-0.69-3.43-0.8-5.14-0.33c-6.22,2.85-12.47,5.58-19.12,8.51c-9.04,4-15.44,8.88-23.51,14.16
	c-14.46,9.46-31.3,21.15-36.57,39.25c-4.17,14.33-1.62,29.99,6.99,42.38c4.6,6.63,12.14,11.33,19.08,16.44
	c5.11,3.76,9.2,9.5,14.59,12.73c1.33,0.8,9.07,2.82,9.24,3.6c0.91,4,10.98,4.55,13.81,6.17c3.18,1.83,5.08,5.81,8.84,7.08
	c7.05,2.38,14.76,3.12,22.33,5.36c5.41,1.6,10.54,5.3,15.53,6.85c9.2,2.86,18.99,3.89,28.54,7.14c4.2,1.43,8.9,3.69,13.32,4.03
	c1.46,0.11,7.41-1.25,8.93-1c6.62,1.09,12.29,4.89,19.25,5.89c-0.22,0.03-0.44,0-0.66-0.08c15.89,2.75,31.21,2.02,47.31,4.75
	c4.08,0.69,8.19,2.79,12.47,3.46c5.15,0.81,8.71-0.53,13.41-0.59c6.13-0.07,12.12,2.01,18.28,2.56c11.48,1.03,22.77-0.05,34.87,0.86
	c9.11,0.68,17.32,0.64,25.98,0.29c2.02-0.08,12.4-0.11,9.64-0.15c12.16,3.91,25.93-1.54,37.68-0.76c7.16,0.48,11.15-0.72,18.1-1.6
	c4.21-0.53,7.9,0.97,12.36,0.9c7.17-0.1,14.05-3.38,20.9-4.15c30.43-3.45,64.01-5.27,92.67-14.68c13.18-4.33,27.65-4.47,40.07-10.67
	c10.59-5.29,22-7.66,32.84-13.03c13.7-6.79,28.73-12.34,41.11-21.84c5.37-4.12,9.67-10.38,14.4-15.33
	C698.03,395.57,704.47,390.33,703.18,379.77z M38.61,377.15c0.03,0.03,0.07,0.07,0.1,0.08C38.67,377.22,38.64,377.19,38.61,377.15z
	 M577.78,282.11C578.26,282.15,578.52,282.22,577.78,282.11L577.78,282.11z M577.25,282.08c-0.37,0.05-0.74,0.11-0.77,0.19
	C576.53,282.11,576.88,282.07,577.25,282.08z M517.4,267.83c-0.23,0.03-0.4,0.06-0.4,0.07C517.01,267.78,517.17,267.77,517.4,267.83
	z M355.3,258.51c-0.34,0.03-0.93,0.09-0.94,0.12C354.45,258.27,354.87,258.35,355.3,258.51z M183.96,277.23
	C183.77,277.24,183.71,277.23,183.96,277.23L183.96,277.23z M113.36,297.91C113.83,297.54,113.82,297.82,113.36,297.91
	L113.36,297.91z M75.59,317.25c-0.06,0.09-0.09,0.15-0.07,0.18C75.47,317.38,75.51,317.31,75.59,317.25z M64.29,414.11
	C64.61,414.3,64.45,414.22,64.29,414.11L64.29,414.11z M200.97,466.78c0.17-0.07,0.27-0.13,0.27-0.16
	C201.24,466.72,201.13,466.77,200.97,466.78z M203.3,467.71C203.19,467.66,203.16,467.64,203.3,467.71L203.3,467.71z M250.38,475.14
	c0,0.02,0.09,0.06,0.22,0.11C250.46,475.25,250.37,475.22,250.38,475.14z M396.62,484.31C396.25,484.28,396.23,484.25,396.62,484.31
	L396.62,484.31z M439.61,480.51C439.99,480.32,440.49,480.59,439.61,480.51L439.61,480.51z M470.87,478.05
	c0.16-0.07,0.28-0.12,0.28-0.11C471.17,478.02,471.05,478.05,470.87,478.05z M579.73,458.65c0.02-0.05,0.04-0.1,0.03-0.15
	C579.78,458.56,579.77,458.61,579.73,458.65z M652.28,432.64C651.96,432.83,652.03,432.78,652.28,432.64L652.28,432.64z
	 M664.56,424.24c0,0.01,0.3-0.1,0.74-0.27C664.97,424.19,664.63,424.36,664.56,424.24z"/>
<path id="XMLID_221_" style="fill:#FDD598;" d="M628.27,298.68C627.91,298.61,628.16,298.68,628.27,298.68
	C628.21,298.67,628.23,298.68,628.27,298.68z"/>
<path id="XMLID_220_" style="fill:#FDD598;" d="M376.77,256.78c-0.73-1.06-1.3-1.09-1.7-0.09
	C375.65,257.06,376.22,257.09,376.77,256.78C376.06,256.11,376.59,256.84,376.77,256.78z"/>
<path id="XMLID_219_" style="fill:#FDD598;" d="M380.78,483.95C381.17,484.02,380.91,483.94,380.78,483.95
	C380.84,483.96,380.81,483.95,380.78,483.95z"/>
<path id="XMLID_218_" style="fill:#FDD598;" d="M589.65,284.02C589.07,283.94,589.32,284.06,589.65,284.02
	C589.54,284,589.55,284.03,589.65,284.02z"/>
<g id="XMLID_198_" style="opacity:0.8;">
	<path id="XMLID_216_" style="fill:#BE8978;" d="M729.63,275C729.53,274.87,729.61,274.98,729.63,275
		C729.62,274.98,729.62,274.99,729.63,275z"/>
	<g id="XMLID_200_">
		<path id="XMLID_215_" style="fill:#BE8978;" d="M698.11,354.84C698.77,354.61,698.61,354.53,698.11,354.84L698.11,354.84z"/>
		<path id="XMLID_214_" style="fill:#BE8978;" d="M711.81,347.19c-0.03-0.02-0.21,0.11-0.43,0.3
			C711.71,347.38,711.95,347.27,711.81,347.19z"/>
		<path id="XMLID_213_" style="fill:#BE8978;" d="M344.44,384.9c0-0.01-0.09-0.01-0.23-0.01
			C344.34,384.93,344.43,384.95,344.44,384.9z"/>
		<path id="XMLID_212_" style="fill:#BE8978;" d="M262.16,371.06c0-0.01-0.1-0.03-0.26-0.05
			C262.06,371.09,262.17,371.12,262.16,371.06z"/>
		<path id="XMLID_204_" style="fill:#BE8978;" d="M711.28,347.79c-3.22,0.35-9.96,5.65-13.26,7.12c-3.4,1.51-6.71,2.81-10.24,4.27
			c-4.18,1.72-8.22,5.6-12.9,7.25c-6.44,2.27-13.28,2.66-19.61,5.21c-19.71,7.93-42.45,10.31-63.76,14.64
			c-14.3,2.9-28.24,4.52-42.39,5.17c-9.21,0.43-17.64,2.13-27.24,2.06c-6.69-0.05-11.8,1.67-18.35,1.93c-5,0.2-10.34-1.71-15.2-1.35
			c-0.65,0.05-1.34,0.39-1.97,0.46c-3.55,0.36-6.34,0.06-9.4,0.09c-5.89,0.04-12.15-1.26-17.99-0.63
			c-23.22,2.5-46.1-1.94-68.92-3.38c-5.75-0.36-11.48-0.37-17.67-1.4c-2.79-0.47-7.04-1.71-9.86-1.61
			c-8.38,0.31-16.11-1.26-24.91-2.27c-10.35-1.2-19.65-4.53-29.98-5.12c-8.19-0.47-15.28-4.14-23.35-5.41
			c-11.81-1.86-21.39-3.82-33.03-6.52c-10.38-2.41-22.71-3.85-33.4-8.02c-23.85-9.31-48.85-15.33-71.73-25.82
			c-10.47-4.8-19.47-11.55-29.51-17.16c-2.37-1.33-5.3-1.64-7.92-3.25c-1.94-1.2-4.04-3.44-5.97-4.87
			c-3.28-2.44-11.4-8.72-14.52-9.32c-0.22,2.2,2.66,7.83,2.75,6.36c-0.08,0.68,0.2,1.18,0.83,1.51
			c-2.61,2.34,16.18,20.94,20.36,24.53c8.66,7.45,16.79,12.04,26.46,18.23c16.04,10.27,34.31,17.89,52.26,24.78
			c42.75,16.42,90.32,24.6,135.95,30.41c8.36,1.06,16.41,2.34,24.47,2.7c5.31,0.24,10.62,0.5,15.8,1.35
			c2.18,0.36,5.28,1.75,7.23,1.77c2.07,0.02,3.98-1.47,5.73-1.49c3.44-0.05,7.35,0.62,10.61,1.11c3.46,0.52,6.84,2.05,10.48,1.81
			c2.57-0.17,5.21-1.85,7.56-1.83c10.19,0.08,20.52,2.47,30.26,1.85c7.66-0.49,14.68,0.32,22.51,0.41
			c5.8,0.06,11.31-1.71,16.82-1.62c10.07,0.17,18.64-0.81,28.91-0.98c7.12-0.11,12.55-2.36,19.46-2.34
			c4.25,0.01,9.08-0.51,13.31-1.38c11.46-2.36,23.57-3.74,35.33-4.76c7.22-0.63,13.99-3.94,21.01-5.4
			c7.17-1.49,14.46-3.64,21.36-5.45c12.52-3.29,24.16-6.45,36.16-10.98c10.5-3.96,21.05-8.13,30.52-13.48
			c5.39-3.05,10.46-6.86,15.7-10.12C701.65,355.84,715.42,347.34,711.28,347.79C711.17,347.8,711.8,347.73,711.28,347.79z
			 M269.77,395.58c0,0,0.18,0.14,0.43,0.33C269.89,395.84,269.66,395.73,269.77,395.58z M288.46,399.79
			c0.15,0.01,0.24,0.02,0.24,0.03C288.71,399.88,288.61,399.85,288.46,399.79z M364.74,408.58c0.13-0.01,0.22-0.01,0.21,0
			C364.94,408.62,364.86,408.61,364.74,408.58z M687.18,364.35c0.22-0.06,0.44-0.14,0.66-0.2
			C687.66,364.21,687.44,364.28,687.18,364.35z M688.42,363.94C688.87,363.62,689.01,363.69,688.42,363.94L688.42,363.94z
			 M700.25,356.54c0.2-0.18,0.35-0.32,0.38-0.3C700.76,356.31,700.55,356.43,700.25,356.54z"/>
		<path id="XMLID_203_" style="fill:#BE8978;" d="M242.31,365.75c-0.26-0.22-0.45-0.38-0.45-0.38
			C241.72,365.53,241.97,365.66,242.31,365.75z"/>
		<path id="XMLID_202_" style="fill:#BE8978;" d="M712.81,347.52c-0.45,0.56-0.19,0.36,0.23-0.06
			C712.96,347.48,712.88,347.5,712.81,347.52z"/>
		<path id="XMLID_201_" style="fill:#BE8978;" d="M697.48,355.04c-0.25,0.06-0.49,0.13-0.73,0.18
			C697.03,355.16,697.27,355.1,697.48,355.04z"/>
	</g>
	<path id="XMLID_199_" style="fill:#BE8978;" d="M91.05,307C91.05,307.02,91.05,307,91.05,307C91.05,307,91.05,307,91.05,307z"/>
</g>
<g id="XMLID_175_">
	<path id="XMLID_197_" style="fill:#FFE1A0;" d="M747.91,260.65C747.8,260.5,747.89,260.62,747.91,260.65
		C747.89,260.63,747.9,260.63,747.91,260.65z"/>
	<path id="XMLID_177_" style="fill:#FFE1A0;" d="M754.96,284.04c-0.58-4.48-3.5-18.86-7.05-23.39c1.41,1.93-0.33-0.41-0.54-0.61
		c-1.33-1.27-8.05-11.67-11.37-15.5c-4.26-4.91-8.73-8.36-13.51-12.94c-11.64-11.17-23.28-18.09-37.04-26.68
		c-20.48-12.78-42.49-21.22-64.72-29.68c-25.41-9.67-52.07-16.08-78.13-21.99c-6.03-1.37-12.04-3.8-18.08-5.56
		c-6.44-1.88-12.52-0.9-18.81-1.7c-2.33-0.3-4.52-1.29-6.62-1.8c-4.54-1.09-9.37-1.83-14.2-2.8c-4.68-0.94-9.92-2.81-14.82-3.42
		c-10.53-1.31-19.3-0.85-29.82-2.4c-5.03-0.74-9.14-2.21-14.72-2.51c-6.14-0.33-13.48,0.07-20.11-0.21
		c-7.6-0.32-14.23-3.56-21.43-3.59c-11.82-0.06-23.84-0.07-35.88-0.97c-6.51-0.48-13.96,0.16-20.69-0.34
		c-6.16-0.45-12.43,1.16-18.41,1.68c-6.39,0.55-12.67-1.47-19.1-1.54c-6.59-0.07-12.66,2.68-18.79,2.92
		c-7.41,0.3-20.42,1.25-29.87,1.61c-6.33,0.24-12.23,2.49-18.26,2.96c-7.34,0.57-14.65,0.09-21.99,1.73
		c-3.34,0.75-6.79,1.12-9.96,1.93c-1.63,0.42-2.84,2.81-4.43,3.2c-1.12,0.28-3.29-0.97-3.48-0.92c-5.98,1.55-10.57,2.71-16.92,3.8
		c-5.1,0.88-9.1,3.64-14.08,5.05c-3.04,0.86-5.37,0.44-8.9,1.52c-2.76,0.84-5,1.7-7.7,2.66c-8.4,2.98-17.15,6.12-24.89,9.43
		c-9.61,4.11-15.17,8.75-23.58,14.43c-6.21,4.2-12.67,6.08-17.83,11.4c-10.01,10.34-16.68,18.69-19.74,33.24
		c-1.37,6.53-2.77,8.39-1.84,15.23c0.41,2.98,0.98,5.65,1.49,8.57c0.53,2.98,3.55,12.32,3.66,11.34c-0.12,0.73,0.15,1.29,0.81,1.69
		c-0.55,0.09-0.79-0.18-0.75-0.82c0.17,5.3,7.31,12.29,10.08,16.51c5.12,7.79,10.74,13.73,17.86,19.38
		c8.83,7,18.28,12.79,27.87,19.1c10.1,6.65,22.31,10.99,33.24,16.9c10.8,5.84,21.3,11.15,32.37,15.28
		c15.34,5.73,30.4,9.43,45.48,14.7c13.66,4.77,27.19,5.71,40.57,9.93c19.88,6.27,43.1,7.47,63.3,13.36
		c6.37,1.86,14.08,0.47,20.75,1.07c2.75,0.25,6.39,2.64,8.8,2.84c2.81,0.23,5.54-0.95,7.95-0.76c3.33,0.25,7.45,0.86,10.55,1.51
		c3.16,0.66,6.25,2.28,9.6,2.56c3.46,0.29,7.09-1.64,9.87-1.44c5.43,0.39,10.68,2.66,16.42,3.02c7.03,0.45,13.97-0.96,20.84-0.3
		c16.68,1.59,32.14,1.71,48.51,1.91c4.4,0.05,9.35,0.23,14.23,0.16c2.69-0.04,5,0.46,7.55,0.55c5.16,0.19,9.17-1.72,13.73-2.16
		c5.89-0.57,13.19,0.11,19.18,0.08c6.2-0.03,11.14-1.56,17.32-1.88c28.72-1.48,58.81-7.67,87.89-13.79
		c26.45-5.57,53.34-16.86,76.87-30.33C735.16,335.01,758.44,311.1,754.96,284.04C755.19,285.85,755.39,287.37,754.96,284.04z
		 M436.57,136.22C437,136.7,437.22,137.03,436.57,136.22L436.57,136.22z M436.4,136.05c-0.65-0.03-1.2-0.06-1.21-0.09
		C435.06,134.86,435.83,135.46,436.4,136.05z M423.38,134.32c0,0.01-0.2-0.03-0.49-0.09C423.2,134.15,423.43,134.14,423.38,134.32z
		 M365.99,130.01c-0.06,0.01-0.1,0.02-0.11,0.01C365.87,130,365.92,130,365.99,130.01z M333.93,129.46
		c0.01-0.02-0.05-0.06-0.15-0.12C333.89,129.36,333.95,129.4,333.93,129.46z M332.16,129.33
		C332.02,129.34,332.04,129.34,332.16,129.33L332.16,129.33z M271.99,131.38c-0.03,0.08-0.54,0.08-1.14,0.06
		C271.46,131.14,272.23,130.83,271.99,131.38z M245.36,133.91c-0.32,0.05-0.53,0.07-0.54,0.03
		C244.77,133.79,245.02,133.82,245.36,133.91z M225.4,135.93C224.53,136.57,224.81,135.81,225.4,135.93L225.4,135.93z
		 M196.79,139.66c0-0.01-0.19-0.05-0.45-0.09C196.6,139.48,196.79,139.47,196.79,139.66z M241.86,365.37c0,0,0.19,0.16,0.45,0.38
		C241.97,365.66,241.72,365.53,241.86,365.37z M261.9,371.01c0.16,0.02,0.26,0.04,0.26,0.05
		C262.17,371.12,262.06,371.09,261.9,371.01z M344.21,384.88c0.14,0,0.23,0.01,0.23,0.01C344.43,384.95,344.34,384.93,344.21,384.88
		z M361.94,386.78c0.06-0.02,0.11-0.03,0.13-0.01C362.02,386.77,361.98,386.77,361.94,386.78z M696.75,355.22
		c0.24-0.05,0.49-0.12,0.73-0.18C697.27,355.1,697.03,355.16,696.75,355.22z M698.11,354.84
		C698.61,354.53,698.77,354.61,698.11,354.84L698.11,354.84z M711.38,347.49c0.23-0.19,0.4-0.32,0.43-0.3
		C711.95,347.27,711.71,347.38,711.38,347.49z M753.15,296.82c0.02-0.18,0.03-0.29,0.04-0.29
		C753.25,296.52,753.22,296.64,753.15,296.82z"/>
	<path id="XMLID_176_" style="fill:#FFE1A0;" d="M52.89,259.05C52.89,259.08,52.89,259.05,52.89,259.05
		C52.89,259.06,52.89,259.05,52.89,259.05z"/>
</g>
<path id="XMLID_174_" style="fill:#FDD598;" d="M728.87,246.64C728.76,246.5,728.85,246.61,728.87,246.64
	C728.85,246.62,728.85,246.62,728.87,246.64z"/>
<path id="XMLID_154_" style="fill:#EBB460;" d="M735.63,267.2c-0.33-2.31-6.73-19.49-6.4-19.81c-0.17-0.52-0.46-0.96-0.88-1.3
	c-0.39-0.34-7.21-9.73-9.83-12.41c-4.44-4.53-8.28-8.16-13.18-12.34c-10.1-8.59-19.11-14.98-31.06-20.83
	c-5.68-2.78-11.21-7.38-16.58-10.24c-4.85-2.58-10.35-3.58-15.52-5.61c-6.13-2.41-11.07-5.45-17.13-7.34
	c-4.48-1.4-9.56-3.64-14.16-5.4c-24.3-9.3-49.9-14.57-74.73-20.74c-6.42-1.6-12.99-2.97-19.41-5.14
	c-6.16-2.08-12.02-0.65-18.03-1.69c-12.87-2.22-25.96-6.44-39.47-7.04c-4.57-0.2-9.09-1.73-13.94-1.9c-2.71-0.1-6.4,0.68-8.98,0.2
	c-2.32-0.44-3.55-2.44-6.01-2.88c-2.98-0.53-5.6,1.15-8.27,1.11c-13.75-0.21-27.3-4.51-40.19-4.65
	c-11.32-0.12-23.14,0.02-34.24-0.03c-5.53-0.03-11.82-0.34-17.18-0.9c-6.03-0.63-11.71,0.78-17.66,1.05
	c-6.08,0.28-12.01-1.53-18.14-1.21c-5.17,0.26-10.56,2.23-15.44,2.3c-7.76,0.12-20.82,1.1-30.62,1.13
	c-5.28,0.01-11.05,1.72-16.25,2.23c-7.82,0.78-15.01,1.05-22.76,2.82c-11.36,2.59-21.5,3.91-33.39,6.7
	c-16.5,3.86-34.9,9.16-50.88,15.91c-7.33,3.1-12.04,7.49-18.8,11.58c-6.17,3.74-11.94,5.57-17.26,10.27
	c-9.17,8.11-15.37,16.48-17.85,28.68c-1.03,5.08-2.47,7.68-1.65,13.36c0.4,2.77,1.13,5.21,1.64,7.86c0.47,2.46,3.21,10.66,3.33,9.63
	c-0.1,0.66,0.16,1.15,0.77,1.48c-2.19,1.64,17.82,24.85,22.1,28.25c9.01,7.16,18.36,11.55,27.98,17.7
	c18.1,11.59,40.11,19.01,59.03,28.35c11.6,5.73,24.96,8.05,37.15,11.56c13.24,3.81,27.29,7.51,40.26,10.39
	c5.95,1.32,11.59,2.79,17.25,3.86c5.99,1.13,12.54,1.5,18.63,3.09c8.68,2.26,17.63,2.56,26.02,4.64
	c22.58,5.62,46.06,7.63,69.44,8.51c9.8,0.37,20.54,2.56,30.08,2.76c8.56,0.17,17.82,2.5,26.53,2.3c7.56-0.18,12.88-1.13,20.34-0.02
	c5.51,0.82,9.56-0.66,15.02-1.17c6.05-0.57,12.54,1.51,18.83,0.95c11.16-0.99,24-2.61,35.14-3.03c26.58-0.99,53.09-5.89,79.9-10.66
	c26.73-4.76,51.56-14.07,75.57-26.64C714.83,312.39,739.4,293.34,735.63,267.2C735.86,268.79,736.05,270.13,735.63,267.2z
	 M435.17,135.71C435.58,136.13,435.79,136.43,435.17,135.71L435.17,135.71z M435.01,135.56c-0.61-0.03-1.13-0.06-1.14-0.08
	C433.74,134.51,434.47,135.05,435.01,135.56z M422.74,133.97c0,0.01-0.19-0.03-0.46-0.08C422.57,133.82,422.79,133.81,422.74,133.97
	z M368.71,129.87c-0.06,0.01-0.1,0.02-0.1,0.01C368.6,129.86,368.64,129.86,368.71,129.87z M338.54,129.2
	c0.01-0.02-0.05-0.06-0.14-0.11C338.5,129.12,338.56,129.16,338.54,129.2z M336.87,129.08
	C336.74,129.09,336.76,129.09,336.87,129.08L336.87,129.08z M280.26,130.55c-0.03,0.07-0.51,0.07-1.07,0.04
	C279.76,130.33,280.49,130.06,280.26,130.55z M255.21,132.62c-0.3,0.04-0.49,0.06-0.51,0.02
	C254.66,132.51,254.89,132.53,255.21,132.62z M236.44,134.27C235.62,134.83,235.89,134.16,236.44,134.27L236.44,134.27z
	 M209.53,137.39c0-0.01-0.18-0.04-0.42-0.08C209.36,137.22,209.54,137.22,209.53,137.39z M253.22,335.68c0,0,0.18,0.14,0.43,0.34
	C253.32,335.93,253.09,335.82,253.22,335.68z M272.11,340.74c0.15,0.02,0.24,0.03,0.25,0.05
	C272.36,340.84,272.26,340.81,272.11,340.74z M349.64,353.37c0.14,0,0.22,0.01,0.22,0.01C349.85,353.43,349.77,353.42,349.64,353.37
	z M366.34,355.13c0.06-0.02,0.11-0.02,0.12-0.01C366.41,355.13,366.38,355.13,366.34,355.13z M681.25,329.33
	c0.23-0.05,0.46-0.11,0.69-0.16C681.74,329.22,681.52,329.28,681.25,329.33z M682.53,329C683,328.73,683.15,328.8,682.53,329
	L682.53,329z M694.97,322.63c0.21-0.16,0.38-0.28,0.41-0.26C695.51,322.44,695.29,322.53,694.97,322.63z M734,278.4
	c0.01-0.15,0.03-0.25,0.04-0.25C734.09,278.14,734.07,278.25,734,278.4z"/>
<path id="XMLID_153_" style="fill:#FDD598;" d="M74.78,241.33C74.79,241.35,74.78,241.34,74.78,241.33
	C74.78,241.34,74.78,241.33,74.78,241.33z"/>
<g id="XMLID_94_" style="opacity:0.8;">
	<path id="XMLID_151_" style="fill:#BE8978;" d="M409.01,299.17C409.09,299.18,409.09,299.17,409.01,299.17L409.01,299.17z"/>
	<path id="XMLID_150_" style="fill:#BE8978;" d="M175.38,264.47c-0.02-0.01-0.05-0.02-0.07-0.04
		C175.33,264.45,175.35,264.46,175.38,264.47z"/>
	<path id="XMLID_149_" style="fill:#BE8978;" d="M425.85,94.4C426.6,94.35,424.04,93.24,425.85,94.4
		C425.93,94.39,425.8,94.37,425.85,94.4z"/>
	<path id="XMLID_148_" style="fill:#BE8978;" d="M593.61,127.01C592.92,126.73,593.18,126.95,593.61,127.01
		C593.48,126.95,593.5,126.99,593.61,127.01z"/>
	<g id="XMLID_95_">
		<path id="XMLID_147_" style="fill:none;" d="M253.64,336.02c-0.24-0.19-0.42-0.34-0.43-0.34
			C253.09,335.82,253.32,335.93,253.64,336.02z"/>
		<path id="XMLID_146_" style="fill:none;" d="M280.94,90.39C280.25,90.41,280.41,90.43,280.94,90.39L280.94,90.39z"/>
		<path id="XMLID_145_" style="fill:none;" d="M74.78,241.33C74.78,241.33,74.78,241.33,74.78,241.33
			C74.73,240,74.66,240.65,74.78,241.33z"/>
		<path id="XMLID_144_" style="fill:none;" d="M261.22,92.03C261.51,92.02,261.56,92,261.22,92.03L261.22,92.03z"/>
		<path id="XMLID_143_" style="fill:none;" d="M728.87,246.64c-0.01-0.02-0.03-0.03-0.04-0.05
			C729.21,247.85,729.52,247.46,728.87,246.64z"/>
		<path id="XMLID_142_" style="fill:none;" d="M728.36,246.1C730.21,247.74,727.85,245.65,728.36,246.1
			C728.51,246.23,728.55,246.26,728.36,246.1z"/>
		<path id="XMLID_141_" style="fill:none;" d="M320.2,89.75C319.84,89.65,319.85,89.73,320.2,89.75L320.2,89.75z"/>
		<path id="XMLID_140_" style="fill:none;" d="M75.49,242.06C210.53,138.18-60.35,343.85,75.49,242.06
			C75.49,242.07,75.08,242.37,75.49,242.06z"/>
		<path id="XMLID_139_" style="fill:none;" d="M682.53,329C683.15,328.8,683,328.73,682.53,329L682.53,329z"/>
		<path id="XMLID_138_" style="fill:none;" d="M734,278.4c0.07-0.15,0.09-0.26,0.04-0.25C734.03,278.15,734.02,278.25,734,278.4z"/>
		<path id="XMLID_137_" style="fill:none;" d="M694.97,322.63c0.31-0.09,0.54-0.19,0.41-0.26
			C695.35,322.35,695.18,322.46,694.97,322.63z"/>
		<path id="XMLID_136_" style="fill:none;" d="M681.94,329.17c-0.23,0.05-0.46,0.11-0.69,0.16
			C681.52,329.28,681.74,329.22,681.94,329.17z"/>
		<path id="XMLID_135_" style="fill:none;" d="M272.36,340.79c0-0.01-0.1-0.03-0.25-0.05C272.26,340.81,272.36,340.84,272.36,340.79
			z"/>
		<path id="XMLID_134_" style="fill:none;" d="M349.86,353.39c0-0.01-0.08-0.01-0.22-0.01
			C349.77,353.42,349.85,353.43,349.86,353.39z"/>
		<path id="XMLID_133_" style="fill:#BE8978;" d="M422.28,133.89c0.28,0.05,0.46,0.09,0.46,0.08
			C422.79,133.81,422.57,133.82,422.28,133.89z"/>
		<path id="XMLID_132_" style="fill:#BE8978;" d="M368.61,129.88c0,0.01,0.04,0,0.1-0.01C368.64,129.86,368.6,129.86,368.61,129.88z
			"/>
		<path id="XMLID_131_" style="fill:#BE8978;" d="M435.17,135.71C435.79,136.43,435.58,136.13,435.17,135.71L435.17,135.71z"/>
		<path id="XMLID_130_" style="fill:#BE8978;" d="M338.54,129.2c0.02-0.05-0.04-0.08-0.14-0.11
			C338.49,129.15,338.55,129.18,338.54,129.2z"/>
		<path id="XMLID_129_" style="fill:#BE8978;" d="M435.01,135.56c-0.54-0.52-1.27-1.05-1.14-0.08
			C433.88,135.5,434.4,135.53,435.01,135.56z"/>
		<path id="XMLID_128_" style="fill:#BE8978;" d="M236.44,134.27C235.89,134.16,235.62,134.83,236.44,134.27L236.44,134.27z"/>
		<path id="XMLID_127_" style="fill:#BE8978;" d="M209.11,137.31c0.24,0.04,0.42,0.08,0.42,0.08
			C209.54,137.22,209.36,137.22,209.11,137.31z"/>
		<path id="XMLID_126_" style="fill:#BE8978;" d="M255.21,132.62c-0.32-0.08-0.56-0.11-0.51,0.02
			C254.72,132.67,254.91,132.66,255.21,132.62z"/>
		<path id="XMLID_125_" style="fill:#BE8978;" d="M280.26,130.55c0.23-0.48-0.49-0.21-1.07,0.04
			C279.75,130.61,280.22,130.61,280.26,130.55z"/>
		<path id="XMLID_124_" style="fill:#FDD598;" d="M728.87,246.64C728.77,246.51,728.85,246.61,728.87,246.64
			C728.85,246.62,728.85,246.62,728.87,246.64z"/>
		<path id="XMLID_123_" style="fill:#EBB460;" d="M102.34,233.81c-0.1-0.12-0.18-0.21-0.18-0.2
			C102.03,233.66,102.13,233.73,102.34,233.81z"/>
		<path id="XMLID_122_" style="fill:#EBB460;" d="M143.97,253.54C143.59,252.88,142.94,253.57,143.97,253.54L143.97,253.54z"/>
		<path id="XMLID_121_" style="fill:#EBB460;" d="M355.43,295.85c-0.41-0.15-0.65-0.27-0.61-0.34
			C354.65,295.83,354.99,295.89,355.43,295.85z"/>
		<path id="XMLID_120_" style="fill:#EBB460;" d="M356.08,295.75c-0.08,0.02-0.17,0.04-0.26,0.05
			C356.62,295.67,357.38,295.38,356.08,295.75z"/>
		<path id="XMLID_119_" style="fill:#EBB460;" d="M591.7,282.76c-0.08,0.03-0.16,0.06-0.23,0.08
			C592.35,282.7,592.24,282.58,591.7,282.76z"/>
		<path id="XMLID_118_" style="fill:#EBB460;" d="M616.85,276.28c0.14-0.03,0.24-0.05,0.22-0.08
			C617.07,276.2,616.98,276.23,616.85,276.28z"/>
		<path id="XMLID_117_" style="fill:#EBB460;" d="M155.24,259.56c-0.06-0.03-0.13-0.05-0.19-0.08
			C156.24,260.04,155.58,259.7,155.24,259.56z"/>
		<path id="XMLID_97_" style="fill:#BE8978;" d="M73.19,211.33c2.88,2.79,4.58,6.11,7.16,9.15c6.01,7.08,13.31,8.91,20.75,13.44
			c8.21,5,16.19,7.85,25.16,12.04c5.8,2.71,45.28,25.11,49.63,18.47c-0.36,0.55,23.98,7.86,27.67,8.81
			c8.44,2.16,17.48,4.11,26.35,6.44c11.93,3.14,22.57,4.26,34.49,5.38c7.72,0.72,16.06,4.08,23.84,5.35
			c8.91,1.46,17.87,2.24,26.52,2.53c10.8,0.36,21.24,5.04,32.37,4.05c9.97-0.89,18.51,1.75,28.63,2.08
			c10.85,0.35,23.43-0.37,32.85,0.08c17.51,0.83,35.04-0.82,52.38-1.06c13.64-0.19,27.03,1.13,40.48,0.05
			c13.28-1.07,25.93-4.58,39.31-4.66c13.15-0.08,24.84-6.66,37.52-7.9c24.99-2.45,54.03-13.75,79.66-23.06
			c5.95-2.16,9.03-4.35,13.74-8.32c6.53-5.49,14.28-8.65,20.47-14.35c5.32-4.9,12.7-12.06,10.48-20.32
			c-1.4-5.19-9.8-8.87-13.96-11.42c-45.81-28.15-99.16-46.09-151.1-57c-55-11.55-111.27-19.92-167.42-21.64
			c-24.62-0.75-48.2-1.32-73.05-1.73c-5.92-0.1-11.3,1.83-16.96,2.09c-3.62,0.16-9.7-0.65-15.24,0.34
			c-12.03,2.15-23.99,3.02-36.2,3.4c-15.23,0.48-29.51,5.14-42.7,8.95c-3.6,1.04-7.69,0.67-11.49,1.78
			c-5.3,1.55-10.13,2.19-15.32,3.5c-9.05,2.28-17.69,6.59-26.38,9.56c-15.24,5.22-29.26,13.52-42.49,22.92
			c-4.01,2.85-7.78,6.39-10.96,10.45c-2.86,3.65-5.76,8.25-7.45,12.68c-1.11,2.91,0.93,3.87-1.05,6.95
			C71.64,210.72,72.41,211.04,73.19,211.33C73.7,211.82,73.09,211.29,73.19,211.33z M617.07,276.2c0.02,0.03-0.08,0.05-0.22,0.08
			C616.98,276.23,617.07,276.2,617.07,276.2z M591.7,282.76c0.53-0.17,0.64-0.05-0.23,0.08
			C591.55,282.81,591.63,282.78,591.7,282.76z M435.17,135.71C435.58,136.13,435.79,136.43,435.17,135.71L435.17,135.71z
			 M435.01,135.56c-0.61-0.03-1.13-0.06-1.14-0.08C433.74,134.51,434.47,135.05,435.01,135.56z M422.74,133.97
			c0,0.01-0.19-0.03-0.46-0.08C422.57,133.82,422.79,133.81,422.74,133.97z M368.71,129.87c-0.06,0.01-0.1,0.02-0.1,0.01
			C368.6,129.86,368.64,129.86,368.71,129.87z M356.08,295.75c1.3-0.36,0.54-0.08-0.26,0.05C355.91,295.79,356,295.77,356.08,295.75
			z M354.81,295.52c-0.04,0.07,0.2,0.19,0.61,0.34C354.99,295.89,354.65,295.83,354.81,295.52z M338.54,129.2
			c0.01-0.02-0.05-0.06-0.14-0.11C338.5,129.12,338.56,129.16,338.54,129.2z M336.87,129.08c-0.07,0-0.09,0.01-0.09,0.01
			C336.78,129.09,336.8,129.08,336.87,129.08z M280.26,130.55c-0.03,0.07-0.51,0.07-1.07,0.04
			C279.76,130.33,280.49,130.06,280.26,130.55z M255.21,132.62c-0.3,0.04-0.49,0.06-0.51,0.02
			C254.66,132.51,254.89,132.53,255.21,132.62z M236.44,134.27C235.62,134.83,235.89,134.16,236.44,134.27L236.44,134.27z
			 M209.53,137.39c0-0.01-0.18-0.04-0.42-0.08C209.36,137.22,209.54,137.22,209.53,137.39z M155.24,259.56
			c0.34,0.14,1,0.48-0.19-0.08C155.11,259.51,155.18,259.53,155.24,259.56z M143.97,253.54
			C142.94,253.57,143.59,252.88,143.97,253.54L143.97,253.54z M102.16,233.6c0,0,0.08,0.09,0.18,0.2
			C102.13,233.73,102.03,233.66,102.16,233.6z M73.47,211.44c0,0-0.02-0.01-0.08-0.04C73.45,211.43,73.47,211.44,73.47,211.44z"/>
		<path id="XMLID_96_" style="fill:#FDD598;" d="M74.78,241.33C74.78,241.35,74.78,241.34,74.78,241.33
			C74.78,241.34,74.78,241.33,74.78,241.33z"/>
	</g>
</g>
<g id="XMLID_75_">
	<path id="XMLID_93_" style="fill:#FDE9CA;" d="M417.53,277.12C417.62,277.12,417.62,277.12,417.53,277.12L417.53,277.12z"/>
	<path id="XMLID_92_" style="fill:#FDE9CA;" d="M160.54,249.05c-0.03-0.02-0.05-0.03-0.08-0.04
		C160.49,249.02,160.52,249.03,160.54,249.05z"/>
	<path id="XMLID_91_" style="fill:#FDE9CA;" d="M424.19,20C424.95,19.9,422.2,18.71,424.19,20C424.28,19.99,424.14,19.96,424.19,20z
		"/>
	<path id="XMLID_77_" style="fill:#FFE1A0;" d="M735.96,150.38c3.24-6.69-2.24-12.66-3.74-18.34c-1.5-5.69-0.96-8.5-4.28-14.01
		c-2.53-4.19-4.93-6.79-8.19-10.28c-2.92-3.12-5.45-7.27-8.65-10.34c-3.74-3.59-7.18-3.63-11.51-5.86
		c-5.7-2.92-7.87-7.67-12.88-11.54c-5.72-4.42-15.74-7.94-22.45-10.97c-8.65-3.91-17.21-7.84-25.84-11
		c-6.67-2.44-13.35-4.76-20.16-6.6c-2.45-0.66-7.47-1-8.94-1.42c0.6,0.17-3.8-0.73-0.67-0.36c-7.41-4.8-15.95-9.12-24.85-10.32
		c-2.4-0.32-5.39,0.31-7.56-0.04c-2.98-0.48-2.9-1.19-5.67-2.03c-4.82-1.45-8.98-2.62-14.02-3.55c-5.55-1.03-10.93-0.73-16.11-1.46
		c-3.97-0.56-8.09-2.12-12.51-2.81c-7.59-1.17-15.95-1.69-24.1-2.77c-4.43-0.59-8.11-2.36-12.32-3.13
		c-4.29-0.78-6.67,0.54-10.74,0.76c-6.21,0.33-11.63-0.96-17.52-2.49c-12.69-3.3-27.38-0.1-39.52-1.76
		c-3.34-0.46-10.3-2.74-16.38-2.47c-7.76,0.34-14.62-0.05-22.09,0.03c-2.06,0.02-3.55,1.35-5.46,1.24
		c-1.16-0.06-2.35-1.78-3.56-1.87c-3.94-0.3-6.7,1.17-10.38,1.3c-8.81,0.33-18.38-0.75-27.41-0.7c-18.52,0.11-36.34,4.79-54.24,5.87
		c-16.8,1.01-33.74,2.05-50.3,5.78c-8.9,2-16.59,3.1-25.11,5.54c-7,2.01-15.54,2.95-22.68,4.09c-6.02,0.97-11.62,2.68-17.25,4.29
		c-7.17,2.05-16.83,5.17-23.16,9.09c-5.98,3.7-18.42,3.69-26.19,6.52c-6.19,2.25-13.43,6.23-19.45,9.23
		c-7.8,3.88-12.53,7.12-20.97,9.89c-3.26,1.07-5.87,2.49-8.68,4.46c-1.37,1.69-2.56,3.49-3.59,5.4c-2.66,0.55-5.13,1.58-7.39,3.07
		c-5.19,3.54-7.6,9.81-11.95,14.16c-5.21,5.21-9.34,9.37-13.57,15.34c-4.35,6.15-3.98,6.88-4.96,14.81
		c-1.04,8.39-2.08,13.59-1,22.02c1.23,9.62,2.48,19.58,9.68,27.17c3.67,3.87,8.31,5.3,12.11,9.27c6.78,7.07,10.77,14.47,20.12,19.14
		c7.08,3.53,12.86,6.69,19.56,10.21c11.33,5.94,25.44,9.91,37.46,15.38c5.13,2.34,30.45,18.04,34.22,10.62
		c-0.52,1.03,26.49,8.29,30.7,9.29c9.18,2.18,19.28,4.02,29.13,6.24c22.26,5.01,43.54,5.92,65.79,9.98
		c11.1,2.03,22.1,0.74,32.43,0.67c5.85-0.04,11.36,2.19,16.93,3.44c6.47,1.45,11.91-0.51,18.24-1.09c8.91-0.82,17.61,2,26.92,1.7
		c11.89-0.39,25.57-1.99,35.86-2.05c19.33-0.12,38.47-3.7,57.46-4.86c7.11-0.44,15.28,1.7,22.24-0.1c3.73-0.97,5.84-2.42,9.64-2.73
		c4.82-0.4,9.09,0.77,14-0.22c7.24-1.47,13.53-3.63,20.88-4.95c5.94-1.07,10.93-2.06,16.7-2.66c15.73-1.65,28.56-9.97,43.52-12.56
		c25.71-4.45,55.81-19.31,81.4-31.65c6.82-3.29,12.28-6.69,17.48-12c3.51-3.6,7.03-7.94,10.93-11.14
		c7.33-6.03,15.97-11.64,20.15-20.88C734.58,166.46,733.49,157.84,735.96,150.38C736.13,150.04,735.41,152.04,735.96,150.38z
		 M308.61,21.11C308.23,21.12,308.22,21.01,308.61,21.11L308.61,21.11z M265.8,24.49C265.22,24.57,265.05,24.56,265.8,24.49
		L265.8,24.49z M244.37,27.83C244.74,27.77,244.69,27.79,244.37,27.83L244.37,27.83z M188.36,39
		C188.47,38.99,188.47,38.99,188.36,39L188.36,39z M46.19,189.38C46.33,189.44,46.29,189.43,46.19,189.38L46.19,189.38z
		 M78.86,215.24c0,0,0.09,0.11,0.21,0.24C78.84,215.41,78.73,215.33,78.86,215.24z M125.64,237.43
		C124.51,237.54,125.19,236.64,125.64,237.43L125.64,237.43z M138.07,244.14c0.07,0.03,0.14,0.06,0.21,0.09
		C138.66,244.38,139.4,244.76,138.07,244.14z M358.17,276.1c-0.03,0.09,0.23,0.22,0.69,0.38C358.38,276.55,358,276.5,358.17,276.1z
		 M359.28,276.39c0.09-0.03,0.19-0.05,0.28-0.09C360.96,275.76,360.15,276.17,359.28,276.39z M615.74,244.74
		c0.08-0.04,0.17-0.08,0.25-0.12C616.56,244.37,616.69,244.52,615.74,244.74z M643.07,234.88c0.13-0.07,0.23-0.12,0.23-0.11
		C643.32,234.8,643.22,234.84,643.07,234.88z"/>
	<path id="XMLID_76_" style="fill:#FDE9CA;" d="M609.16,49.78C608.44,49.49,608.65,49.73,609.16,49.78
		C609.02,49.72,609.04,49.77,609.16,49.78z"/>
</g>
<path id="XMLID_74_" style="fill:#FDD598;" d="M421.76,19.56C422.5,19.47,419.85,18.42,421.76,19.56
	C421.84,19.55,421.71,19.53,421.76,19.56z"/>
<path id="XMLID_62_" style="fill:#EBB460;" d="M716.26,130.42c0.15-5.63-2.79-7.24-4.02-11.86c-1.05-3.94-0.28-6.47-2.02-10.51
	c-2.89-6.73-9.05-10.5-13.66-15.43c-5.7-6.1-8.64-7.27-15.82-10.82c-6.61-3.27-10.11-9.63-17.03-12.71
	c-13.62-6.06-27.96-11.5-41.61-16.43c-6.12-2.21-12.19-4.75-18.55-6.14c-2.46-0.54-9.72-1.21-7.84-1
	c-6.74-4.05-13.77-7.22-21.59-8.51c-5.4-0.89-9.69-1.24-14.32-2.32c-5.93-1.39-11.7-3.2-17.89-4.09c-8.51-1.23-15.81-1.53-24.12-2.4
	c-7.16-0.75-15.19-1.62-22.65-2.96c-7.7-1.39-12.8-2.26-20.52-1.72c-6.56,0.46-11.91-1.51-18.02-2.98
	c-11.22-2.71-25.02,0.36-35.73-0.84c-9.28-1.04-24.32-2.41-35.85-2.2c-2.5,0.05-3.86,0.68-6.28,0.57c-1.55-0.08-3.41-1.46-5.23-1.53
	c-2.54-0.1-4.72,1.41-7.09,1.52c-9.52,0.44-19.87-0.71-29.58-0.6c-16,0.18-31.55,4.28-47.12,5.16c-15.82,0.9-31.82,1.75-47.44,5.06
	c-7.95,1.68-15.19,2.35-22.8,4.4c-6.39,1.72-14.25,3.14-20.84,4.08c-12.35,1.76-28.22,5.15-39.54,11.65
	c-4.52,2.59-14.42,3.2-20.73,4.75c-7.17,1.76-15.57,5.72-22.32,9.02C103.93,67.5,91.6,72.67,81.02,79.91
	c-10,6.84-17.74,17.45-25.55,25.99c-4.93,5.4-4.91,5.09-6.18,12.42c-1.28,7.35-2.32,12.21-1.32,19.74
	c1.13,8.52,1.55,15.7,7.38,22.82c3.78,4.61,8.88,6.36,13.13,10.44c5.64,5.41,8.46,10.8,15.52,14.93c3.79,2.22,8.21,2.77,11.9,4.77
	c2.58,1.39,4.2,4.08,7.06,5.6c2.29,1.22,7.05,2.57,9.56,3.49c2.84,1.04,6.59,1.25,9.21,2.39c6.5,2.82,11.77,5.12,18.5,7.34
	c4.11,1.35,29.48,17.16,33.39,10.03c-0.47,0.86,25.34,7.14,28.96,8.05c9.28,2.33,19.18,3.48,28.96,6.04
	c5.3,1.39,11.13,2.29,16.55,3.35c6.69,1.31,11.52-0.27,17.82,0.03c8.36,0.39,17.76,3.42,26.18,4.85c4.39,0.75,9.03,0.24,13.48,0.73
	c6.02,0.67,9.23-0.42,14.82-0.71c11.57-0.61,21.29,4.54,33.35,3.04c9.33-1.16,17.89,1.36,27.49,1.06c11.18-0.35,24.1-1.74,33.82-1.8
	c18.08-0.1,36.04-2.91,53.86-4.16c7-0.49,14.33,1.01,21.31-0.18c3.12-0.54,5.25-2.1,8.41-2.4c4-0.37,7.88,0.89,11.96,0.31
	c6.57-0.93,12.12-3.65,18.76-4.46c7.6-0.93,13.91-2.43,21.46-2.89c13.63-0.84,25.18-8.7,38.2-10.79
	c24.66-3.96,53.23-17.44,78.14-28.31c10.84-4.73,16.62-12.65,25.7-19.76c7.34-5.75,17.13-11.48,19.93-21.23
	c1.1-3.83,0.18-8.2,0.95-12.17C714.18,136.05,717.07,133.19,716.26,130.42C716.34,127.42,716.45,131.07,716.26,130.42z
	 M96.07,190.37c0,0,0.09,0.09,0.2,0.21C96.06,190.52,95.95,190.45,96.07,190.37z M140.19,209.78
	C139.13,209.88,139.77,209.08,140.19,209.78L140.19,209.78z M151.91,215.65c0.07,0.03,0.14,0.05,0.2,0.08
	C152.47,215.86,153.17,216.19,151.91,215.65z M252.17,26.41C252.52,26.36,252.46,26.38,252.17,26.41L252.17,26.41z M272.38,23.49
	C271.83,23.56,271.67,23.55,272.38,23.49L272.38,23.49z M312.75,20.53C312.39,20.54,312.39,20.45,312.75,20.53L312.75,20.53z
	 M359.49,243.61c-0.03,0.07,0.21,0.19,0.65,0.33C359.68,244.01,359.33,243.96,359.49,243.61z M360.54,243.86
	c0.09-0.02,0.18-0.05,0.26-0.07C362.12,243.32,361.36,243.67,360.54,243.86z M602.41,216.18c0.08-0.03,0.16-0.07,0.24-0.11
	C603.18,215.85,603.3,215.98,602.41,216.18z M628.18,207.55c0.12-0.06,0.22-0.1,0.22-0.1C628.42,207.48,628.33,207.51,628.18,207.55
	z"/>
<path id="XMLID_61_" style="fill:#FDD598;" d="M596.21,45.61C595.5,45.36,595.74,45.58,596.21,45.61
	C596.07,45.56,596.09,45.61,596.21,45.61z"/>
<path id="XMLID_59_" style="fill:#7F4A46;" d="M635.39,476.05c0-89.73,0-179.46,0-269.19c0-17.27-1.93-27.52,9.51-41.74
	c21.38-26.58,6.92-53.26-17.19-70.75c-30.57-22.16-69.39-33.11-105.8-40.89c-50.91-10.87-103.74-15.03-155.74-13.63
	c-48.07,1.3-96.53,8.75-141.98,24.76c-35.1,12.37-71.32,30.32-95.95,59.06c-26,30.33-21.84,64.34-21.84,101.44
	c0,95.99,0,191.97,0,287.96c0,49.84,0,99.68,0,149.52c0,10.72-2.93,26.34,0,36.74c0.56,1.99-0.51,3.04,0.72,4.04
	c1.87,1.53,11.45,0,13.84,0c7.12,0,14.23,0,21.35,0c3.5,0,15.29,1.7,17.09-0.79c1.25-1.72,0-9,0-11.04c0-17.25,0-34.5,0-51.75
	c0-56.52,0-113.04,0-169.56c0-47.85,0-95.7,0-143.54c0-11.08-0.68-22.6,1.11-33.56c6.6-40.32,43.4-70.71,84.32-69.09
	c40.98,1.62,76.16,32.19,80.99,73.36c1.32,11.27,0.57,23,0.57,34.32c0,52.09,0,104.18,0,156.27c0,47.06,0,94.12,0,141.18
	c0,19.06-1.99,37.05-17.7,50.65c-17.7,15.33-39.17,10.1-60.06,16.11c-15.36,4.42-36.95,16.27-33.23,35.52
	c3.76,19.46,28.91,27.74,45.76,30.07c11.69,1.62,23.78,1.16,35.28-1.47c5.61-1.28,11.08-3.05,16.27-5.54
	c4.55-2.18,9.33-7.57,13.77-9.14c4.03-1.43,11.33,0,15.52,0c12.74,0,25.48,0,38.22,0c39.15,0,78.29,0,117.44,0
	c21.58,0,43.15,0,64.73,0c-0.67-31.04-30.89-29.83-53.37-30c-19.95-0.16-34.79-10.24-35.63-31.56c-0.92-23.24,0-46.7,0-69.95
	c0-87.92,0-175.83,0-263.75c0-25.91-0.26-51.83,0-77.73c0.17-17.48,6.75-33.7,22.62-42.76c7.56-4.32,16-5.44,24.39-7.21
	c11.64-2.44,22.98-6,34.55-8.6c15.34-3.44,31.09,2.65,37.7,17.6c3.77,8.53,2.74,18.63,2.74,27.77c0,15.62,0,31.24,0,46.86
	c0,45.24,0,90.48,0,135.72c0,33.39,0,66.78,0,100.18c0,16.26,4.63,32,20.98,39.38c14.3,6.46,31.56,2.05,41.31-10.12
	c12.39-15.46,7.97-33.29-3.38-47.57C643.13,509.62,635.39,494.46,635.39,476.05z"/>
<path id="XMLID_58_" style="fill:#D97E6E;" d="M655.99,550.95c0,12.82-19.88,12.82-20,0C635.87,538.2,655.99,538,655.99,550.95z"/>
<path id="XMLID_57_" style="fill:#EBAE47;" d="M373.87,182.94c-16.73-11.94-35.21-22.88-50.79-36.26
	c-18.06-15.51,20.18-33.41,31.14-41.23c6.22-4.44,15.47-14.31,23.43-15.68c8.33-1.43,19.27,9.82,25.31,14.13
	c10.53,7.52,50.83,26.74,34.12,42.2c-9.04,8.36-20.85,14.88-30.86,22.03C399.4,173.01,383.16,189.57,373.87,182.94z"/>
<path id="XMLID_56_" style="fill:none;stroke:#D97E6E;stroke-width:8;stroke-linecap:round;stroke-linejoin:round;stroke-miterlimit:10;" d="
	M390.3,207.73c-15,11.88-34.41-9.41-46.39-17.96c-10.17-7.26-20.34-14.52-30.51-21.78"/>
<line id="XMLID_55_" style="fill:none;stroke:#D97E6E;stroke-width:8;stroke-linecap:round;stroke-linejoin:round;stroke-miterlimit:10;" x1="406.74" y1="195.98" x2="403.32" y2="198.43"/>
<path id="XMLID_54_" style="fill:#EBAE47;" d="M442.38,137.18c-39.11,0-78.22,0-117.33,0c-5.18,0-11.98,1.27-8.06-7.36
	c1.89-4.15,5.28-2.58,11.17-2.58c23.54,0,47.08,0,70.62,0c11.85,0,23.7,0,35.55,0C443.77,127.24,442.38,126.94,442.38,137.18z"/>
<path id="XMLID_53_" style="fill:#FDE860;" d="M373.87,172.94c-16.73-11.94-35.21-22.88-50.79-36.26
	c-18.06-15.51,20.18-33.41,31.14-41.23c6.22-4.44,15.47-14.31,23.43-15.68c8.33-1.43,19.27,9.82,25.31,14.13
	c10.53,7.52,50.83,26.74,34.12,42.2c-9.04,8.36-20.85,14.88-30.86,22.03C399.4,163.01,383.16,179.57,373.87,172.94z"/>
<path id="XMLID_52_" style="fill:none;stroke:#FFFFFF;stroke-width:6;stroke-linecap:round;stroke-miterlimit:10;" d="
	M384.31,160.67c-7.52,5.37-20.82-8.25-26.49-12.3"/>
<line id="XMLID_51_" style="fill:none;stroke:#FFFFFF;stroke-width:6;stroke-linecap:round;stroke-miterlimit:10;" x1="393.15" y1="154.36" x2="393.15" y2="154.36"/>
<g id="XMLID_44_">
	<g id="XMLID_35_">
		<path id="XMLID_60_" style="fill:#D97E6E;" d="M451.39,731.57c-32.59,0-65.21-0.11-97.66-3.43c-4.21-0.43-7.82,3.9-7.82,7.82
			c0,4.59,3.6,7.39,7.82,7.82c32.45,3.32,65.07,3.43,97.66,3.43C461.46,747.22,461.48,731.57,451.39,731.57L451.39,731.57z"/>
	</g>
</g>
<path id="XMLID_43_" style="fill:none;stroke:#D97E6E;stroke-width:8;stroke-linecap:round;stroke-miterlimit:10;" d="M546.49,78.08
	c3.93,1.21,2.03,0.58,5.72,1.87"/>
<path id="XMLID_42_" style="fill:none;stroke:#D97E6E;stroke-width:8;stroke-linecap:round;stroke-miterlimit:10;" d="M576.38,89.07
	c31.36,13.84,71.32,45.2,34.96,78.31"/>
<path id="XMLID_41_" style="fill:#D97E6E;" d="M489.39,739.39c0,10-16,10-16,0S489.39,729.39,489.39,739.39z"/>
<line id="XMLID_40_" style="fill:none;stroke:#E0AC5B;stroke-width:8;stroke-linecap:round;stroke-miterlimit:10;" x1="214.87" y1="430.39" x2="223.54" y2="439.06"/>
<line id="XMLID_39_" style="fill:none;stroke:#E0AC5B;stroke-width:8;stroke-linecap:round;stroke-miterlimit:10;" x1="492.87" y1="597.39" x2="501.54" y2="606.06"/>
<line id="XMLID_38_" style="fill:none;stroke:#E0AC5B;stroke-width:8;stroke-linecap:round;stroke-miterlimit:10;" x1="279.54" y1="578.39" x2="270.87" y2="587.06"/>
<line id="XMLID_37_" style="fill:none;stroke:#E0AC5B;stroke-width:8;stroke-linecap:round;stroke-miterlimit:10;" x1="552.87" y1="565.06" x2="561.54" y2="556.39"/>
<path id="XMLID_36_" style="fill:#E0AC5B;" d="M275.06,439.39c0,7-10,7-10,0C265.06,433.39,275.06,433.39,275.06,439.39z"/>
<path id="XMLID_23_" style="fill:#E0AC5B;" d="M260.06,673.39c0,7-10,7-10,0C250.06,667.39,260.06,667.39,260.06,673.39z"/>
<path id="XMLID_22_" style="fill:#E0AC5B;" d="M185.06,556.39c0,7-10,7-10,0C175.06,550.39,185.06,550.39,185.06,556.39z"/>
<line id="XMLID_15_" style="fill:none;stroke:#E0AC5B;stroke-width:8;stroke-linecap:round;stroke-miterlimit:10;" x1="496.87" y1="321.39" x2="505.54" y2="330.06"/>
<line id="XMLID_13_" style="fill:none;stroke:#E0AC5B;stroke-width:8;stroke-linecap:round;stroke-miterlimit:10;" x1="87.54" y1="127.39" x2="78.87" y2="136.06"/>
<path id="XMLID_7_" style="fill:#E0AC5B;" d="M557.06,330.39c0,7-10,7-10,0C547.06,324.39,557.06,324.39,557.06,330.39z"/>
<path id="XMLID_6_" style="fill:#E0AC5B;" d="M551.06,452.39c0,7-10,7-10,0C541.06,446.39,551.06,446.39,551.06,452.39z"/>
<path id="XMLID_5_" style="fill:#E0AC5B;" d="M531.06,457.39c0,7-10,7-10,0C521.06,451.39,531.06,451.39,531.06,457.39z"/>
<path id="XMLID_4_" style="fill:#E0AC5B;" d="M718.06,264.39c0,7-10,7-10,0C708.06,258.39,718.06,258.39,718.06,264.39z"/>
<path id="XMLID_3_" style="fill:#E0AC5B;" d="M687.06,492.39c0,7-10,7-10,0C677.06,486.39,687.06,486.39,687.06,492.39z"/>
<path id="XMLID_2_" style="fill:#E0AC5B;" d="M670.06,161.39c0,7-10,7-10,0C660.06,155.39,670.06,155.39,670.06,161.39z"/>
</svg>
